<svg width="46" height="47" viewBox="0 0 46 47" fill="none" xmlns="http://www.w3.org/2000/svg">
<path d="M10.9106 40.6597C9.04215 40.6597 7.64746 40.1992 6.72656 39.2783C5.81901 38.3708 5.36523 36.9761 5.36523 35.0942V30.8501C5.36523 30.5031 5.24512 30.2028 5.00488 29.9492L2.00195 26.9263C0.667318 25.605 0 24.3037 0 23.0225C0 21.7412 0.667318 20.4333 2.00195 19.0986L5.00488 16.0757C5.24512 15.8354 5.36523 15.5418 5.36523 15.1948V10.9307C5.36523 9.03548 5.81901 7.64079 6.72656 6.74658C7.63411 5.83903 9.02881 5.38525 10.9106 5.38525H15.1748C15.5218 5.38525 15.8154 5.26514 16.0557 5.0249L19.0786 2.02197C20.4132 0.687337 21.7212 0.0200195 23.0024 0.0200195C24.2837 0.00667318 25.585 0.673991 26.9062 2.02197L29.9292 5.0249C30.1828 5.26514 30.4831 5.38525 30.8301 5.38525H35.0742C36.9561 5.38525 38.3507 5.8457 39.2583 6.7666C40.1792 7.67415 40.6396 9.06217 40.6396 10.9307V15.1948C40.6396 15.5418 40.7598 15.8354 41 16.0757L44.0029 19.0986C45.3242 20.4333 45.9849 21.7412 45.9849 23.0225C45.9982 24.3037 45.3376 25.605 44.0029 26.9263L41 29.9492C40.7598 30.2028 40.6396 30.5031 40.6396 30.8501V35.0942C40.6396 36.9761 40.1792 38.3708 39.2583 39.2783C38.3507 40.1992 36.9561 40.6597 35.0742 40.6597H30.8301C30.4831 40.6597 30.1828 40.7798 29.9292 41.02L26.9062 44.0229C25.585 45.3442 24.2837 46.0049 23.0024 46.0049C21.7212 46.0182 20.4132 45.3576 19.0786 44.0229L16.0557 41.02C15.8154 40.7798 15.5218 40.6597 15.1748 40.6597H10.9106ZM20.7803 32.9521C21.1807 32.9521 21.5477 32.8587 21.8813 32.6719C22.2284 32.4717 22.522 32.1981 22.7622 31.8511L32.1113 17.397C32.2581 17.1701 32.3783 16.9299 32.4717 16.6763C32.5785 16.4227 32.6318 16.1691 32.6318 15.9155C32.6318 15.355 32.4183 14.9012 31.9912 14.5542C31.5775 14.2072 31.1037 14.0337 30.5698 14.0337C29.8625 14.0337 29.2686 14.4141 28.7881 15.1748L20.7202 28.0674L17.0166 23.4229C16.7497 23.0892 16.4827 22.8556 16.2158 22.7222C15.9489 22.5754 15.6486 22.502 15.3149 22.502C14.7544 22.502 14.2806 22.7021 13.8936 23.1025C13.5065 23.4896 13.313 23.9634 13.313 24.5239C13.313 24.7909 13.3597 25.0511 13.4531 25.3047C13.5599 25.5449 13.7067 25.7918 13.8936 26.0454L18.7183 31.8511C19.0119 32.2248 19.3255 32.505 19.6592 32.6919C19.9928 32.8654 20.3665 32.9521 20.7803 32.9521Z" fill="#0088FF"/>
</svg>
