<svg width="48" height="38" viewBox="0 0 48 38" fill="none" xmlns="http://www.w3.org/2000/svg">
<path d="M28.8481 12.3921H39.0581C39.4318 12.3921 39.7454 12.2653 39.999 12.0117C40.266 11.7448 40.3994 11.4245 40.3994 11.0508C40.3994 10.6771 40.266 10.3634 39.999 10.1099C39.7454 9.85628 39.4318 9.72949 39.0581 9.72949H28.8481C28.4478 9.72949 28.1208 9.85628 27.8672 10.1099C27.6136 10.3634 27.4868 10.6771 27.4868 11.0508C27.4868 11.4245 27.6136 11.7448 27.8672 12.0117C28.1208 12.2653 28.4478 12.3921 28.8481 12.3921ZM28.8481 20.2397H39.0581C39.4318 20.2397 39.7454 20.113 39.999 19.8594C40.266 19.5924 40.3994 19.2655 40.3994 18.8784C40.3994 18.5047 40.266 18.1911 39.999 17.9375C39.7454 17.6839 39.4318 17.5571 39.0581 17.5571H28.8481C28.4478 17.5571 28.1208 17.6839 27.8672 17.9375C27.6136 18.1911 27.4868 18.5047 27.4868 18.8784C27.4868 19.2655 27.6136 19.5924 27.8672 19.8594C28.1208 20.113 28.4478 20.2397 28.8481 20.2397ZM28.8481 28.0474H39.0581C39.4318 28.0474 39.7454 27.9206 39.999 27.667C40.266 27.4134 40.3994 27.0998 40.3994 26.7261C40.3994 26.3524 40.266 26.0321 39.999 25.7651C39.7454 25.4982 39.4318 25.3647 39.0581 25.3647H28.8481C28.4478 25.3647 28.1208 25.4982 27.8672 25.7651C27.6136 26.0321 27.4868 26.3524 27.4868 26.7261C27.4868 27.0998 27.6136 27.4134 27.8672 27.667C28.1208 27.9206 28.4478 28.0474 28.8481 28.0474ZM8.14795 28.1475H23.2227C23.6097 28.1475 23.9033 28.0273 24.1035 27.7871C24.3171 27.5335 24.4238 27.2266 24.4238 26.8662C24.4238 26.3857 24.2503 25.7785 23.9033 25.0444C23.5563 24.3104 23.0225 23.5697 22.3018 22.8223C21.5944 22.0749 20.6868 21.4543 19.5791 20.9604C18.4847 20.4533 17.1834 20.1997 15.6753 20.1997C14.1805 20.1997 12.8859 20.4533 11.7915 20.9604C10.6971 21.4543 9.78955 22.0749 9.06885 22.8223C8.34814 23.5697 7.81429 24.3104 7.46729 25.0444C7.12028 25.7785 6.94678 26.3857 6.94678 26.8662C6.94678 27.2266 7.04688 27.5335 7.24707 27.7871C7.46061 28.0273 7.7609 28.1475 8.14795 28.1475ZM15.6753 18.8584C16.8898 18.8584 17.9242 18.4046 18.7783 17.4971C19.6458 16.5895 20.0796 15.4484 20.0796 14.0737C20.0796 13.2196 19.8794 12.4388 19.479 11.7314C19.0786 11.0107 18.5448 10.4368 17.8774 10.0098C17.2235 9.58268 16.4894 9.36914 15.6753 9.36914C14.8745 9.36914 14.1405 9.58268 13.4731 10.0098C12.8058 10.4368 12.272 11.0107 11.8716 11.7314C11.4845 12.4388 11.291 13.2196 11.291 14.0737C11.291 15.4484 11.7181 16.5895 12.5723 17.4971C13.4398 18.4046 14.4741 18.8584 15.6753 18.8584ZM6.78662 37.7568C4.57113 37.7568 2.88281 37.1829 1.72168 36.0352C0.573893 34.8874 0 33.2257 0 31.0503V6.72656C0 4.52441 0.573893 2.85612 1.72168 1.72168C2.88281 0.573893 4.57113 0 6.78662 0H40.7998C43.0153 0 44.6969 0.573893 45.8447 1.72168C46.9925 2.86947 47.5664 4.53776 47.5664 6.72656V31.0503C47.5664 33.2257 46.9925 34.8874 45.8447 36.0352C44.6969 37.1829 43.0153 37.7568 40.7998 37.7568H6.78662Z" fill="#0088FF"/>
</svg>
