<svg width="25" height="18" viewBox="0 0 25 18" fill="none" xmlns="http://www.w3.org/2000/svg">
<path d="M12.4346 10.7495C12.9049 10.7495 13.3062 10.5835 13.6382 10.2515C13.9757 9.9139 14.1445 9.50439 14.1445 9.02295C14.1445 8.55257 13.9757 8.15137 13.6382 7.81934C13.3062 7.48177 12.9049 7.31299 12.4346 7.31299C11.9587 7.31299 11.5519 7.48177 11.2144 7.81934C10.8823 8.15137 10.7163 8.55257 10.7163 9.02295C10.7163 9.50439 10.8823 9.9139 11.2144 10.2515C11.5519 10.5835 11.9587 10.7495 12.4346 10.7495ZM8.14307 4.49902C8.4751 4.49902 8.72965 4.58203 8.90674 4.74805C9.08382 4.90853 9.17236 5.09945 9.17236 5.3208C9.17236 5.40381 9.14193 5.58919 9.08105 5.87695C9.02018 6.15918 8.93994 6.49398 8.84033 6.88135C8.74072 7.26872 8.63005 7.66162 8.5083 8.06006C8.39209 8.4585 8.27311 8.8182 8.15137 9.13916C8.02962 9.45459 7.91895 9.67871 7.81934 9.81152C7.64779 10.0329 7.40153 10.3289 7.08057 10.6997C6.76514 11.0649 6.43311 11.4827 6.08447 11.9531C5.74137 12.4235 5.44808 12.9243 5.20459 13.4556L4.54053 14.8584C4.33577 15.3011 4.06185 15.611 3.71875 15.7881C3.38118 15.9707 3.01872 16.0509 2.63135 16.0288C2.24398 16.0122 1.87044 15.9181 1.51074 15.7466C1.15658 15.575 0.852214 15.3564 0.597656 15.0908C0.343099 14.8252 0.17985 14.5374 0.10791 14.2275C0.0359701 13.9176 0.0968424 13.616 0.290527 13.3228C0.500814 12.9963 0.702799 12.6006 0.896484 12.1357C1.0957 11.6709 1.19531 11.1646 1.19531 10.6167C1.19531 9.83643 1.17318 9.21663 1.12891 8.75732C1.08464 8.29801 1.03483 7.93001 0.979492 7.65332C0.924154 7.37663 0.874349 7.13037 0.830078 6.91455C0.791341 6.6932 0.771973 6.43034 0.771973 6.12598C0.771973 5.77734 0.85498 5.51725 1.021 5.3457C1.19255 5.17415 1.33643 5.06071 1.45264 5.00537C1.45264 4.70654 1.54118 4.45199 1.71826 4.2417C1.89535 4.02588 2.11947 3.8488 2.39062 3.71045C2.66178 3.5721 2.93848 3.47249 3.2207 3.41162C3.50293 3.34521 3.74642 3.31201 3.95117 3.31201C4.13932 3.31201 4.2334 3.38949 4.2334 3.54443C4.2334 3.57764 4.22233 3.63021 4.2002 3.70215C4.18359 3.76855 4.17529 3.82943 4.17529 3.88477C4.17529 4.01758 4.25 4.17253 4.39941 4.34961C4.55436 4.52116 4.74805 4.68994 4.98047 4.85596C5.21842 5.02197 5.47021 5.16309 5.73584 5.2793C6.00146 5.38997 6.24495 5.44531 6.46631 5.44531C6.63232 5.44531 6.7762 5.39827 6.89795 5.3042C7.02523 5.20459 7.14974 5.09391 7.27148 4.97217C7.39323 4.84489 7.52051 4.73421 7.65332 4.64014C7.79167 4.54606 7.95492 4.49902 8.14307 4.49902ZM16.7178 4.49902C16.9004 4.49902 17.0609 4.54606 17.1992 4.64014C17.3376 4.73421 17.4648 4.84489 17.5811 4.97217C17.6973 5.09391 17.819 5.20459 17.9463 5.3042C18.0736 5.39827 18.223 5.44531 18.3945 5.44531C18.6159 5.44531 18.8566 5.38997 19.1167 5.2793C19.3823 5.16309 19.6313 5.02197 19.8638 4.85596C20.1017 4.68994 20.2954 4.52116 20.4448 4.34961C20.5998 4.17253 20.6772 4.01758 20.6772 3.88477C20.6772 3.82943 20.6662 3.76855 20.644 3.70215C20.6274 3.63021 20.6191 3.57764 20.6191 3.54443C20.6191 3.38949 20.7132 3.31201 20.9014 3.31201C21.1117 3.31201 21.3579 3.34521 21.6401 3.41162C21.9224 3.47249 22.1991 3.5721 22.4702 3.71045C22.7414 3.8488 22.9655 4.02588 23.1426 4.2417C23.3197 4.45199 23.4082 4.70654 23.4082 5.00537C23.5189 5.06071 23.6572 5.17415 23.8232 5.3457C23.9948 5.51725 24.0806 5.77734 24.0806 6.12598C24.0806 6.43034 24.0612 6.6932 24.0225 6.91455C23.9837 7.13037 23.9367 7.37663 23.8813 7.65332C23.826 7.93001 23.7762 8.29801 23.7319 8.75732C23.6877 9.21663 23.6655 9.83643 23.6655 10.6167C23.6655 11.1646 23.7624 11.6709 23.9561 12.1357C24.1553 12.6006 24.36 12.9963 24.5703 13.3228C24.764 13.616 24.8249 13.9176 24.7529 14.2275C24.681 14.5374 24.5177 14.8252 24.2632 15.0908C24.0086 15.3564 23.7015 15.575 23.3418 15.7466C22.9876 15.9181 22.6169 16.0122 22.2295 16.0288C21.8421 16.0509 21.4769 15.9707 21.1338 15.7881C20.7962 15.611 20.5223 15.3011 20.312 14.8584L19.6562 13.4556C19.4072 12.9243 19.1084 12.4235 18.7598 11.9531C18.4167 11.4827 18.0846 11.0649 17.7637 10.6997C17.4482 10.3289 17.2075 10.0329 17.0415 9.81152C16.9419 9.67871 16.8312 9.45459 16.7095 9.13916C16.5877 8.8182 16.466 8.4585 16.3442 8.06006C16.228 7.66162 16.1201 7.26872 16.0205 6.88135C15.9209 6.49398 15.8407 6.15918 15.7798 5.87695C15.7189 5.58919 15.6885 5.40381 15.6885 5.3208C15.6885 5.09945 15.7743 4.90853 15.9458 4.74805C16.1229 4.58203 16.3802 4.49902 16.7178 4.49902ZM12.4346 0C13.4307 0 14.377 0.160482 15.2734 0.481445C16.1755 0.802409 16.9972 1.25618 17.7388 1.84277C18.4858 2.42383 19.1167 3.10173 19.6313 3.87646C19.5207 4.02588 19.3685 4.15869 19.1748 4.2749C18.9867 4.39111 18.7791 4.47689 18.5522 4.53223C18.3309 4.58203 18.1151 4.58757 17.9048 4.54883C17.7166 4.25 17.4455 3.9401 17.0913 3.61914C16.7427 3.29818 16.3276 2.99935 15.8462 2.72266C15.3703 2.44596 14.8418 2.22184 14.2607 2.05029C13.6852 1.87874 13.071 1.79297 12.418 1.79297C11.6211 1.79297 10.8685 1.92025 10.1602 2.1748C9.45736 2.42936 8.82926 2.76693 8.27588 3.1875C7.72803 3.60254 7.28809 4.05632 6.95605 4.54883C6.76237 4.58203 6.55485 4.5765 6.3335 4.53223C6.11768 4.48242 5.91016 4.40495 5.71094 4.2998C5.51725 4.18913 5.35954 4.05355 5.23779 3.89307C5.75244 3.11279 6.38053 2.42936 7.12207 1.84277C7.86361 1.25618 8.68538 0.802409 9.5874 0.481445C10.4894 0.160482 11.4385 0 12.4346 0ZM12.4429 17.3071C11.1203 17.3071 9.88346 17.0221 8.73242 16.4521C7.58138 15.8822 6.61019 15.1185 5.81885 14.1611L5.98486 13.8208C6.09554 13.5884 6.22005 13.367 6.3584 13.1567C6.49674 12.9409 6.64339 12.7334 6.79834 12.5342C7.14144 13.0544 7.55371 13.5192 8.03516 13.9287C8.52214 14.3327 9.06169 14.6702 9.65381 14.9414C9.84749 15.041 10.0107 15.041 10.1436 14.9414C10.2764 14.8473 10.3428 14.7007 10.3428 14.5015C10.3538 13.9702 10.2764 13.4611 10.1104 12.9741C9.94434 12.4871 9.70361 12.0444 9.38818 11.646C9.07275 11.242 8.70475 10.9045 8.28418 10.6333C8.32845 10.5724 8.36995 10.5171 8.40869 10.4673C8.44743 10.4175 8.48063 10.3732 8.5083 10.3345C8.63005 10.1851 8.75456 9.96094 8.88184 9.66211C9.00911 9.35775 9.13086 9.01742 9.24707 8.64111C9.36882 8.25928 9.48226 7.87744 9.5874 7.49561C9.69255 7.10824 9.78109 6.75407 9.85303 6.43311C9.92497 6.10661 9.97477 5.85205 10.0024 5.66943H14.8584C14.8916 5.85205 14.9442 6.10661 15.0161 6.43311C15.0881 6.75407 15.1766 7.10547 15.2817 7.4873C15.3869 7.86914 15.5003 8.25098 15.6221 8.63281C15.7438 9.00911 15.8656 9.34945 15.9873 9.65381C16.1146 9.95264 16.2336 10.1795 16.3442 10.3345C16.3774 10.3732 16.4134 10.4202 16.4521 10.4756C16.4909 10.5254 16.5324 10.578 16.5767 10.6333C16.1561 10.91 15.7881 11.2476 15.4727 11.646C15.1628 12.0444 14.922 12.4871 14.7505 12.9741C14.5845 13.4611 14.5098 13.9702 14.5264 14.5015C14.5264 14.7007 14.59 14.8473 14.7173 14.9414C14.8501 15.041 15.0161 15.041 15.2153 14.9414C15.8075 14.6702 16.3442 14.3299 16.8257 13.9204C17.3071 13.5109 17.7194 13.0516 18.0625 12.5425C18.2174 12.7362 18.3641 12.9409 18.5024 13.1567C18.6463 13.3726 18.7708 13.5939 18.876 13.8208L19.0503 14.186C18.259 15.1379 17.2878 15.896 16.1367 16.4604C14.9912 17.0249 13.7599 17.3071 12.4429 17.3071Z" fill="#0088FF"/>
</svg>
