<svg width="55" height="50" viewBox="0 0 55 50" fill="none" xmlns="http://www.w3.org/2000/svg">
<path d="M52.5112 10.3301C53.2453 10.6637 53.8058 11.1175 54.1929 11.6914C54.5799 12.2653 54.7734 12.8726 54.7734 13.5132C54.7734 14.1672 54.5799 14.7744 54.1929 15.335C53.8058 15.8955 53.2453 16.3426 52.5112 16.6763L32.9722 25.625C31.9045 26.1188 30.9168 26.4792 30.0093 26.7061C29.1017 26.9196 28.2275 27.0197 27.3867 27.0063C26.5326 27.0197 25.6517 26.9196 24.7441 26.7061C23.8499 26.4792 22.8623 26.1188 21.7812 25.625L13.0127 21.6211L25.3047 15.9355C25.972 16.1357 26.6794 16.2358 27.4268 16.2358C28.2275 16.2358 28.9816 16.1224 29.689 15.8955C30.3963 15.6553 30.9702 15.335 31.4106 14.9346C31.8511 14.5208 32.0713 14.047 32.0713 13.5132C32.0713 12.9793 31.8511 12.5122 31.4106 12.1118C30.9702 11.7114 30.3963 11.4045 29.689 11.1909C28.9816 10.964 28.2275 10.8506 27.4268 10.8506C26.6527 10.8506 25.9053 10.964 25.1846 11.1909C24.4772 11.4178 23.8966 11.7314 23.4429 12.1318C23.0024 12.5189 22.7822 12.9793 22.7822 13.5132C22.7822 13.6466 22.8156 13.7668 22.8823 13.8735L9.68945 20.0195L2.24219 16.6763C1.52148 16.356 0.967611 15.9155 0.580566 15.355C0.193522 14.7811 0 14.1672 0 13.5132C0 12.8726 0.193522 12.2653 0.580566 11.6914C0.967611 11.1175 1.52148 10.6637 2.24219 10.3301L21.7812 1.40137C22.849 0.920898 23.8366 0.56722 24.7441 0.340332C25.6517 0.113444 26.5326 0.00667318 27.3867 0.0200195C28.2275 0.00667318 29.1017 0.113444 30.0093 0.340332C30.9168 0.56722 31.9045 0.920898 32.9722 1.40137L52.5112 10.3301ZM12.9526 24.9644L20.5 28.4077C22.9958 29.5422 25.2913 30.1027 27.3867 30.0894C29.4821 30.1027 31.771 29.5422 34.2534 28.4077L47.4463 22.3618V28.3276C47.4463 29.9292 46.9525 31.424 45.9648 32.812C44.9906 34.2 43.6092 35.4146 41.8208 36.4556C40.0324 37.5099 37.9103 38.3307 35.4546 38.918C32.9989 39.5052 30.3096 39.7988 27.3867 39.7988C24.4505 39.7988 21.7546 39.4985 19.2988 38.8979C16.8431 38.3107 14.7277 37.4832 12.9526 36.4155V24.9644ZM7.32715 22.3818L9.76953 23.5029V33.813C8.96875 32.9455 8.36149 32.0312 7.94775 31.0703C7.53402 30.1094 7.32715 29.1951 7.32715 28.3276V22.3818ZM9.76953 40.5195V33.813C10.1833 34.2935 10.6571 34.7472 11.1909 35.1743C11.7381 35.6147 12.3254 36.0285 12.9526 36.4155V40.5195H9.76953ZM7.8877 41.1401C7.8877 40.2459 8.15462 39.5252 8.68848 38.978C9.23568 38.4442 9.95638 38.1772 10.8506 38.1772H11.8516C12.7458 38.1772 13.4598 38.4442 13.9937 38.978C14.5409 39.5252 14.8145 40.2459 14.8145 41.1401V46.2852C14.8145 47.1794 14.5409 47.8934 13.9937 48.4272C13.4598 48.9744 12.7458 49.248 11.8516 49.248H10.8506C9.95638 49.248 9.23568 48.9744 8.68848 48.4272C8.15462 47.8934 7.8877 47.1794 7.8877 46.2852V41.1401Z" fill="#0088FF"/>
</svg>
