<svg width="60" height="42" viewBox="0 0 60 42" fill="none" xmlns="http://www.w3.org/2000/svg">
<path d="M24.7642 19.5591C24.1769 19.5591 23.5763 19.2922 22.9624 18.7583L2.86279 0.920898C3.9305 0.306966 5.23844 0 6.78662 0H42.7617C44.3099 0 45.6112 0.306966 46.6655 0.920898L26.5659 18.7583C25.9653 19.2922 25.3647 19.5591 24.7642 19.5591ZM0.500488 31.8511C0.340332 31.4507 0.213542 31.0103 0.120117 30.5298C0.0400391 30.036 0 29.4821 0 28.8682V6.72656C0 6.05924 0.0467122 5.47201 0.140137 4.96484C0.233561 4.44434 0.353678 4.03727 0.500488 3.74365L15.395 16.9766L0.500488 31.8511ZM49.5483 17.9375C47.5864 17.9375 45.7446 18.3446 44.0229 19.1587C42.3013 19.9595 40.8332 21.0472 39.6187 22.4219L34.1533 16.9766L49.0479 3.74365C49.1813 4.03727 49.2948 4.44434 49.3882 4.96484C49.495 5.47201 49.5483 6.05924 49.5483 6.72656V17.9375ZM37.5566 25.645C37.1429 26.4858 36.8159 27.38 36.5757 28.3276C36.3354 29.2619 36.2153 30.2295 36.2153 31.2305C36.2153 32.0046 36.2821 32.752 36.4155 33.4727C36.5623 34.2067 36.7692 34.9141 37.0361 35.5947H6.34619C5.62549 35.5947 4.96484 35.5146 4.36426 35.3545C3.77702 35.2077 3.27653 35.0075 2.86279 34.7539L18.1978 19.439L20.8003 21.7412C21.4409 22.3151 22.0815 22.7422 22.7222 23.0225C23.3761 23.2894 24.0568 23.4229 24.7642 23.4229C25.4715 23.4229 26.1522 23.2894 26.8062 23.0225C27.4601 22.7422 28.1141 22.3151 28.7681 21.7412L31.3506 19.439L37.5566 25.645ZM49.5483 41.6606C48.1203 41.6606 46.779 41.387 45.5244 40.8398C44.2699 40.2926 43.1621 39.5386 42.2012 38.5776C41.2536 37.63 40.5062 36.529 39.959 35.2744C39.4118 34.0199 39.1382 32.6785 39.1382 31.2505C39.1382 29.8091 39.4118 28.4678 39.959 27.2266C40.5062 25.972 41.2536 24.8643 42.2012 23.9033C43.1621 22.9424 44.2699 22.195 45.5244 21.6611C46.779 21.1139 48.1203 20.8403 49.5483 20.8403C50.9764 20.8403 52.3177 21.1139 53.5723 21.6611C54.8268 22.195 55.9346 22.9424 56.8955 23.9033C57.8564 24.8509 58.6038 25.952 59.1377 27.2065C59.6715 28.4611 59.9385 29.8091 59.9385 31.2505C59.9385 32.6652 59.6649 33.9998 59.1177 35.2544C58.5838 36.509 57.8364 37.6167 56.8755 38.5776C55.9146 39.5386 54.8068 40.2926 53.5522 40.8398C52.2977 41.387 50.9631 41.6606 49.5483 41.6606ZM49.5483 38.8779C50.5226 38.8779 51.4035 38.7311 52.1909 38.4375C52.9784 38.1439 53.639 37.7702 54.1729 37.3164C54.7067 36.876 55.0737 36.4355 55.2739 35.9951V35.895C55.0604 35.4813 54.6867 35.0742 54.1528 34.6738C53.619 34.2734 52.9583 33.9398 52.1709 33.6729C51.3968 33.4059 50.5226 33.2725 49.5483 33.2725C48.5741 33.2725 47.6932 33.4059 46.9058 33.6729C46.1317 33.9398 45.4777 34.2734 44.9438 34.6738C44.4233 35.0742 44.0563 35.4813 43.8428 35.895V35.9951C44.0296 36.4355 44.39 36.876 44.9238 37.3164C45.4577 37.7568 46.1183 38.1239 46.9058 38.4175C47.7065 38.7244 48.5874 38.8779 49.5483 38.8779ZM49.5483 31.5908C50.4292 31.5908 51.1699 31.2638 51.7705 30.6099C52.3844 29.9559 52.6914 29.1284 52.6914 28.1274C52.6914 27.2199 52.3844 26.4391 51.7705 25.7852C51.1699 25.1178 50.4292 24.7842 49.5483 24.7842C48.6675 24.7842 47.9201 25.1178 47.3062 25.7852C46.7056 26.4391 46.4053 27.2199 46.4053 28.1274C46.4053 29.1284 46.7056 29.9559 47.3062 30.6099C47.9067 31.2638 48.6541 31.5908 49.5483 31.5908Z" fill="#0088FF"/>
</svg>
