<svg width="55" height="37" viewBox="0 0 55 37" fill="none" xmlns="http://www.w3.org/2000/svg">
<path d="M25.5649 36.3354C23.87 36.3354 22.6888 36.0752 22.0215 35.5547C21.3542 35.0475 21.0205 34.3201 21.0205 33.3726C21.0205 32.0913 21.4142 30.7433 22.2017 29.3286C22.9891 27.9139 24.1235 26.5926 25.605 25.3647C27.0864 24.1235 28.8682 23.1159 30.9502 22.3418C33.0456 21.5677 35.3879 21.1807 37.9771 21.1807C40.5662 21.1807 42.9019 21.5677 44.9839 22.3418C47.0793 23.1159 48.8677 24.1235 50.3491 25.3647C51.8306 26.5926 52.965 27.9139 53.7524 29.3286C54.5399 30.7433 54.9336 32.0913 54.9336 33.3726C54.9336 34.3201 54.5999 35.0475 53.9326 35.5547C53.2653 36.0752 52.0775 36.3354 50.3691 36.3354H25.5649ZM37.9771 17.6572C36.4956 17.6572 35.141 17.2635 33.9131 16.4761C32.6852 15.6753 31.6976 14.6076 30.9502 13.2729C30.2161 11.925 29.8491 10.4168 29.8491 8.74854C29.8491 7.13363 30.2228 5.66553 30.9702 4.34424C31.7176 3.0096 32.7052 1.95524 33.9331 1.18115C35.161 0.393717 36.509 0 37.9771 0C39.4585 0 40.8132 0.387044 42.041 1.16113C43.2689 1.93522 44.2498 2.98291 44.9839 4.3042C45.7313 5.61214 46.105 7.08691 46.105 8.72852C46.105 10.3968 45.7313 11.9049 44.9839 13.2529C44.2498 14.6009 43.2689 15.6753 42.041 16.4761C40.8132 17.2635 39.4585 17.6572 37.9771 17.6572ZM3.82373 36.3555C2.42236 36.3555 1.43473 36.0618 0.86084 35.4746C0.286947 34.9007 0 34.0866 0 33.0322C0 31.6976 0.347005 30.3363 1.04102 28.9482C1.74837 27.5469 2.74935 26.259 4.04395 25.0845C5.35189 23.91 6.90674 22.9557 8.7085 22.2217C10.5236 21.4876 12.5456 21.1206 14.7744 21.1206C16.5361 21.1206 18.131 21.3542 19.5591 21.8213C21.0005 22.2751 22.2617 22.849 23.3428 23.543C22.1816 24.4639 21.1873 25.4982 20.3599 26.646C19.5324 27.7938 18.8984 28.9683 18.458 30.1694C18.0309 31.3573 17.8241 32.485 17.8374 33.5527C17.8641 34.6338 18.1444 35.568 18.6782 36.3555H3.82373ZM14.7744 18.0977C13.4932 18.0977 12.312 17.7573 11.231 17.0767C10.1632 16.3826 9.30908 15.4484 8.66846 14.2739C8.02783 13.0994 7.70752 11.7915 7.70752 10.3501C7.70752 8.93538 8.02783 7.65413 8.66846 6.50635C9.32243 5.34521 10.1833 4.42432 11.251 3.74365C12.332 3.06299 13.5065 2.72266 14.7744 2.72266C16.0423 2.72266 17.2101 3.06299 18.2778 3.74365C19.3589 4.41097 20.2197 5.31852 20.8604 6.46631C21.5143 7.6141 21.8413 8.90202 21.8413 10.3301C21.8413 11.7715 21.521 13.0861 20.8804 14.2739C20.2397 15.4484 19.3856 16.3826 18.3179 17.0767C17.2502 17.7573 16.069 18.0977 14.7744 18.0977Z" fill="#0088FF"/>
</svg>
