<svg width="42" height="42" viewBox="0 0 42 42" fill="none" xmlns="http://www.w3.org/2000/svg">
<path d="M20.8804 41.7607C17.9976 41.7607 15.2949 41.2135 12.7725 40.1191C10.25 39.0381 8.02783 37.5366 6.10596 35.6147C4.19743 33.7062 2.70264 31.4974 1.62158 28.9883C0.540527 26.4658 0 23.7632 0 20.8804C0 17.9976 0.540527 15.2949 1.62158 12.7725C2.70264 10.25 4.19743 8.03451 6.10596 6.12598C8.02783 4.2041 10.25 2.70264 12.7725 1.62158C15.2949 0.540527 17.9976 0 20.8804 0C23.7632 0 26.4658 0.540527 28.9883 1.62158C31.5107 2.70264 33.7262 4.2041 35.6348 6.12598C37.5433 8.03451 39.0381 10.25 40.1191 12.7725C41.2135 15.2949 41.7607 17.9976 41.7607 20.8804C41.7607 23.7632 41.2135 26.4658 40.1191 28.9883C39.0381 31.4974 37.5433 33.7062 35.6348 35.6147C33.7262 37.5366 31.5107 39.0381 28.9883 40.1191C26.4658 41.2135 23.7632 41.7607 20.8804 41.7607ZM11.2109 13.7134C10.904 14.0203 10.7505 14.394 10.7505 14.8345C10.7638 15.2616 10.9173 15.6219 11.2109 15.9155L16.376 20.9604C16.6963 21.2541 17.05 21.4009 17.437 21.4009C17.8641 21.4009 18.2111 21.2674 18.478 21.0005C18.7583 20.7336 18.8984 20.3799 18.8984 19.9395C18.8984 19.5257 18.7583 19.1787 18.478 18.8984L16.3359 16.8364L15.7554 16.2759L16.7964 16.3159H29.4888C29.9159 16.3159 30.2695 16.1758 30.5498 15.8955C30.8434 15.6152 30.9902 15.2616 30.9902 14.8345C30.9902 14.4074 30.8434 14.0537 30.5498 13.7734C30.2695 13.4798 29.9159 13.333 29.4888 13.333H16.7964L15.7554 13.353L16.3359 12.8325L18.478 10.7705C18.7583 10.4902 18.8984 10.1366 18.8984 9.70947C18.8984 9.28239 18.7583 8.93538 18.478 8.66846C18.2111 8.38818 17.8641 8.24805 17.437 8.24805C17.0366 8.24805 16.6829 8.4082 16.376 8.72852L11.2109 13.7134ZM30.4897 28.0674C30.8234 27.7604 30.9836 27.4001 30.9702 26.9863C30.9569 26.5592 30.7967 26.1989 30.4897 25.9053L25.3447 20.8604C25.0378 20.5667 24.6841 20.4199 24.2837 20.4199C23.8566 20.4199 23.5029 20.5601 23.2227 20.8403C22.9424 21.1073 22.8022 21.4543 22.8022 21.8813C22.8022 22.2951 22.9491 22.6421 23.2427 22.9224L25.3848 24.9644L25.9854 25.5249L24.9243 25.4849H12.2119C11.7982 25.4849 11.4512 25.625 11.1709 25.9053C10.8906 26.1855 10.7505 26.5459 10.7505 26.9863C10.7505 27.4134 10.8906 27.7738 11.1709 28.0674C11.4512 28.3477 11.7982 28.4878 12.2119 28.4878H24.9243L25.9854 28.4678L25.3848 28.9883L23.2627 31.0503C22.9557 31.3573 22.8022 31.7043 22.8022 32.0913C22.8022 32.5184 22.9424 32.8721 23.2227 33.1523C23.5029 33.4193 23.8566 33.5527 24.2837 33.5527C24.6574 33.5527 25.0111 33.4059 25.3447 33.1123L30.4897 28.0674Z" fill="#0088FF"/>
</svg>
