<svg width="42" height="42" viewBox="0 0 42 42" fill="none" xmlns="http://www.w3.org/2000/svg">
<path d="M20.8804 41.7607C17.9976 41.7607 15.2949 41.2135 12.7725 40.1191C10.25 39.0381 8.02783 37.5366 6.10596 35.6147C4.19743 33.7062 2.70264 31.4974 1.62158 28.9883C0.540527 26.4658 0 23.7632 0 20.8804C0 17.9976 0.540527 15.2949 1.62158 12.7725C2.70264 10.25 4.19743 8.03451 6.10596 6.12598C8.02783 4.2041 10.25 2.70264 12.7725 1.62158C15.2949 0.540527 17.9976 0 20.8804 0C23.7632 0 26.4658 0.540527 28.9883 1.62158C31.5107 2.70264 33.7262 4.2041 35.6348 6.12598C37.5433 8.03451 39.0381 10.25 40.1191 12.7725C41.2135 15.2949 41.7607 17.9976 41.7607 20.8804C41.7607 23.7632 41.2135 26.4658 40.1191 28.9883C39.0381 31.4974 37.5433 33.7062 35.6348 35.6147C33.7262 37.5366 31.5107 39.0381 28.9883 40.1191C26.4658 41.2135 23.7632 41.7607 20.8804 41.7607ZM20.8604 38.0972C22.3285 38.0972 23.8099 37.897 25.3047 37.4966C26.8128 37.0962 28.2409 36.5156 29.5889 35.7549C30.9368 35.0075 32.1047 34.0999 33.0923 33.0322C32.3049 31.8444 31.2905 30.8501 30.0493 30.0493C28.8215 29.2352 27.4268 28.6213 25.8652 28.2075C24.3171 27.7804 22.6488 27.5669 20.8604 27.5669C19.0719 27.5669 17.397 27.7804 15.8354 28.2075C14.2739 28.6346 12.8792 29.2552 11.6514 30.0693C10.4368 30.8835 9.4292 31.8711 8.62842 33.0322C9.62939 34.0999 10.8039 35.0075 12.1519 35.7549C13.4998 36.5156 14.9212 37.0962 16.416 37.4966C17.9242 37.897 19.4056 38.0972 20.8604 38.0972ZM20.8604 24.0635C22.195 24.0768 23.3895 23.7432 24.4438 23.0625C25.4982 22.3818 26.339 21.4609 26.9663 20.2998C27.5936 19.1253 27.9072 17.8174 27.9072 16.376C27.9072 15.0013 27.5936 13.7401 26.9663 12.5923C26.339 11.4445 25.4915 10.5303 24.4238 9.84961C23.3561 9.1556 22.1683 8.80859 20.8604 8.80859C19.5524 8.80859 18.3646 9.1556 17.2969 9.84961C16.2292 10.5303 15.3817 11.4445 14.7544 12.5923C14.1405 13.7401 13.8335 15.0013 13.8335 16.376C13.8335 17.8174 14.1405 19.1187 14.7544 20.2798C15.3817 21.4409 16.2225 22.3618 17.2769 23.0425C18.3446 23.7231 19.5391 24.0635 20.8604 24.0635Z" fill="#0088FF"/>
</svg>
